<mxfile host="app.diagrams.net" agent="Mozilla/5.0 (Macintosh; Intel Mac OS X 10_15_7) AppleWebKit/537.36 (KHTML, like Gecko) Chrome/130.0.0.0 Safari/537.36" version="25.0.1">
  <diagram name="Page-1" id="PyqmrDLeBmCBZzvQtQ_F">
    <mxGraphModel dx="1026" dy="684" grid="1" gridSize="10" guides="1" tooltips="1" connect="1" arrows="1" fold="1" page="1" pageScale="1" pageWidth="827" pageHeight="1169" math="0" shadow="0">
      <root>
        <mxCell id="0" />
        <mxCell id="1" parent="0" />
        <mxCell id="JTrjq_9muoxQIfTAKnA5-1" value="" style="whiteSpace=wrap;html=1;aspect=fixed;fontFamily=Times New Roman;spacing=2;" parent="1" vertex="1">
          <mxGeometry x="40" y="40" width="860" height="860" as="geometry" />
        </mxCell>
        <mxCell id="JTrjq_9muoxQIfTAKnA5-2" value="" style="shape=folder;fontStyle=1;spacingTop=10;tabWidth=40;tabHeight=14;tabPosition=left;html=1;whiteSpace=wrap;fillColor=#dae8fc;strokeColor=#6c8ebf;fontFamily=Times New Roman;spacing=2;" parent="1" vertex="1">
          <mxGeometry x="90" y="60" width="780" height="180" as="geometry" />
        </mxCell>
        <mxCell id="JTrjq_9muoxQIfTAKnA5-3" value="" style="shape=folder;fontStyle=1;spacingTop=10;tabWidth=40;tabHeight=14;tabPosition=left;html=1;whiteSpace=wrap;fillColor=#dae8fc;strokeColor=#6c8ebf;fontFamily=Times New Roman;spacing=2;" parent="1" vertex="1">
          <mxGeometry x="90" y="250" width="780" height="180" as="geometry" />
        </mxCell>
        <mxCell id="JTrjq_9muoxQIfTAKnA5-4" value="" style="shape=folder;fontStyle=1;spacingTop=10;tabWidth=40;tabHeight=14;tabPosition=left;html=1;whiteSpace=wrap;fillColor=#dae8fc;strokeColor=#6c8ebf;fontFamily=Times New Roman;spacing=2;" parent="1" vertex="1">
          <mxGeometry x="90" y="440" width="780" height="180" as="geometry" />
        </mxCell>
        <mxCell id="JTrjq_9muoxQIfTAKnA5-5" value="&lt;b&gt;Welcome Page&lt;/b&gt;" style="html=1;dropTarget=0;whiteSpace=wrap;fontFamily=Times New Roman;spacing=2;" parent="1" vertex="1">
          <mxGeometry x="100" y="130" width="130" height="70" as="geometry" />
        </mxCell>
        <mxCell id="JTrjq_9muoxQIfTAKnA5-6" value="" style="shape=module;jettyWidth=8;jettyHeight=4;fontFamily=Times New Roman;spacing=2;" parent="JTrjq_9muoxQIfTAKnA5-5" vertex="1">
          <mxGeometry x="1" width="20" height="20" relative="1" as="geometry">
            <mxPoint x="-27" y="7" as="offset" />
          </mxGeometry>
        </mxCell>
        <mxCell id="JTrjq_9muoxQIfTAKnA5-7" value="&lt;b&gt;Floor Plan Display&lt;/b&gt;" style="html=1;dropTarget=0;whiteSpace=wrap;fontFamily=Times New Roman;spacing=2;" parent="1" vertex="1">
          <mxGeometry x="720" y="130" width="130" height="70" as="geometry" />
        </mxCell>
        <mxCell id="JTrjq_9muoxQIfTAKnA5-8" value="" style="shape=module;jettyWidth=8;jettyHeight=4;fontFamily=Times New Roman;spacing=2;" parent="JTrjq_9muoxQIfTAKnA5-7" vertex="1">
          <mxGeometry x="1" width="20" height="20" relative="1" as="geometry">
            <mxPoint x="-27" y="7" as="offset" />
          </mxGeometry>
        </mxCell>
        <mxCell id="JTrjq_9muoxQIfTAKnA5-9" value="&lt;b&gt;Admin Interface&lt;/b&gt;" style="html=1;dropTarget=0;whiteSpace=wrap;fontFamily=Times New Roman;spacing=2;" parent="1" vertex="1">
          <mxGeometry x="260" y="130" width="130" height="70" as="geometry" />
        </mxCell>
        <mxCell id="JTrjq_9muoxQIfTAKnA5-10" value="" style="shape=module;jettyWidth=8;jettyHeight=4;fontFamily=Times New Roman;spacing=2;" parent="JTrjq_9muoxQIfTAKnA5-9" vertex="1">
          <mxGeometry x="1" width="20" height="20" relative="1" as="geometry">
            <mxPoint x="-27" y="7" as="offset" />
          </mxGeometry>
        </mxCell>
        <mxCell id="JTrjq_9muoxQIfTAKnA5-11" value="&lt;b&gt;Visitor interface&lt;/b&gt;" style="html=1;dropTarget=0;whiteSpace=wrap;fontFamily=Times New Roman;spacing=2;" parent="1" vertex="1">
          <mxGeometry x="415" y="130" width="130" height="70" as="geometry" />
        </mxCell>
        <mxCell id="JTrjq_9muoxQIfTAKnA5-12" value="" style="shape=module;jettyWidth=8;jettyHeight=4;fontFamily=Times New Roman;spacing=2;" parent="JTrjq_9muoxQIfTAKnA5-11" vertex="1">
          <mxGeometry x="1" width="20" height="20" relative="1" as="geometry">
            <mxPoint x="-27" y="7" as="offset" />
          </mxGeometry>
        </mxCell>
        <mxCell id="JTrjq_9muoxQIfTAKnA5-13" value="&lt;b&gt;Interactive Map&lt;/b&gt;" style="html=1;dropTarget=0;whiteSpace=wrap;fontFamily=Times New Roman;spacing=2;" parent="1" vertex="1">
          <mxGeometry x="570" y="130" width="130" height="70" as="geometry" />
        </mxCell>
        <mxCell id="JTrjq_9muoxQIfTAKnA5-14" value="" style="shape=module;jettyWidth=8;jettyHeight=4;fontFamily=Times New Roman;spacing=2;" parent="JTrjq_9muoxQIfTAKnA5-13" vertex="1">
          <mxGeometry x="1" width="20" height="20" relative="1" as="geometry">
            <mxPoint x="-27" y="7" as="offset" />
          </mxGeometry>
        </mxCell>
        <mxCell id="JTrjq_9muoxQIfTAKnA5-15" value="User Interface" style="text;align=center;fontStyle=1;verticalAlign=middle;spacingLeft=3;spacingRight=3;strokeColor=none;rotatable=0;points=[[0,0.5],[1,0.5]];portConstraint=eastwest;html=1;fontFamily=Times New Roman;spacing=2;" parent="1" vertex="1">
          <mxGeometry x="440" y="90" width="80" height="26" as="geometry" />
        </mxCell>
        <mxCell id="JTrjq_9muoxQIfTAKnA5-16" style="edgeStyle=orthogonalEdgeStyle;rounded=0;orthogonalLoop=1;jettySize=auto;html=1;exitX=0;exitY=1;exitDx=4;exitDy=0;exitPerimeter=0;entryX=1;entryY=0;entryDx=0;entryDy=0;fontFamily=Times New Roman;spacing=2;" parent="1" source="JTrjq_9muoxQIfTAKnA5-12" target="JTrjq_9muoxQIfTAKnA5-11" edge="1">
          <mxGeometry relative="1" as="geometry" />
        </mxCell>
        <mxCell id="JTrjq_9muoxQIfTAKnA5-17" value="&lt;b&gt;User Authentication&lt;/b&gt;" style="html=1;dropTarget=0;whiteSpace=wrap;fontFamily=Times New Roman;spacing=2;" parent="1" vertex="1">
          <mxGeometry x="120" y="320" width="130" height="70" as="geometry" />
        </mxCell>
        <mxCell id="JTrjq_9muoxQIfTAKnA5-18" value="" style="shape=module;jettyWidth=8;jettyHeight=4;fontFamily=Times New Roman;spacing=2;" parent="JTrjq_9muoxQIfTAKnA5-17" vertex="1">
          <mxGeometry x="1" width="20" height="20" relative="1" as="geometry">
            <mxPoint x="-27" y="7" as="offset" />
          </mxGeometry>
        </mxCell>
        <mxCell id="JTrjq_9muoxQIfTAKnA5-19" value="&lt;b&gt;Visitor Navigation Logic&lt;/b&gt;" style="html=1;dropTarget=0;whiteSpace=wrap;fontFamily=Times New Roman;spacing=2;" parent="1" vertex="1">
          <mxGeometry x="310" y="325" width="130" height="70" as="geometry" />
        </mxCell>
        <mxCell id="JTrjq_9muoxQIfTAKnA5-20" value="" style="shape=module;jettyWidth=8;jettyHeight=4;fontFamily=Times New Roman;spacing=2;" parent="JTrjq_9muoxQIfTAKnA5-19" vertex="1">
          <mxGeometry x="1" width="20" height="20" relative="1" as="geometry">
            <mxPoint x="-27" y="7" as="offset" />
          </mxGeometry>
        </mxCell>
        <mxCell id="JTrjq_9muoxQIfTAKnA5-21" value="Application Logic" style="text;align=center;fontStyle=1;verticalAlign=middle;spacingLeft=3;spacingRight=3;strokeColor=none;rotatable=0;points=[[0,0.5],[1,0.5]];portConstraint=eastwest;html=1;fontFamily=Times New Roman;spacing=2;" parent="1" vertex="1">
          <mxGeometry x="440" y="280" width="80" height="26" as="geometry" />
        </mxCell>
        <mxCell id="JTrjq_9muoxQIfTAKnA5-22" value="&lt;b&gt;Admin Room Management Logic&lt;/b&gt;" style="html=1;dropTarget=0;whiteSpace=wrap;fontFamily=Times New Roman;spacing=2;" parent="1" vertex="1">
          <mxGeometry x="510" y="330" width="130" height="70" as="geometry" />
        </mxCell>
        <mxCell id="JTrjq_9muoxQIfTAKnA5-23" value="" style="shape=module;jettyWidth=8;jettyHeight=4;fontFamily=Times New Roman;spacing=2;" parent="JTrjq_9muoxQIfTAKnA5-22" vertex="1">
          <mxGeometry x="1" width="20" height="20" relative="1" as="geometry">
            <mxPoint x="-27" y="7" as="offset" />
          </mxGeometry>
        </mxCell>
        <mxCell id="JTrjq_9muoxQIfTAKnA5-24" value="&lt;b&gt;Map and Floor Plan Generation&lt;/b&gt;" style="html=1;dropTarget=0;whiteSpace=wrap;fontFamily=Times New Roman;spacing=2;" parent="1" vertex="1">
          <mxGeometry x="710" y="325" width="130" height="70" as="geometry" />
        </mxCell>
        <mxCell id="JTrjq_9muoxQIfTAKnA5-25" value="" style="shape=module;jettyWidth=8;jettyHeight=4;fontFamily=Times New Roman;spacing=2;" parent="JTrjq_9muoxQIfTAKnA5-24" vertex="1">
          <mxGeometry x="1" width="20" height="20" relative="1" as="geometry">
            <mxPoint x="-27" y="7" as="offset" />
          </mxGeometry>
        </mxCell>
        <mxCell id="JTrjq_9muoxQIfTAKnA5-26" value="Database" style="text;align=center;fontStyle=1;verticalAlign=middle;spacingLeft=3;spacingRight=3;strokeColor=none;rotatable=0;points=[[0,0.5],[1,0.5]];portConstraint=eastwest;html=1;fontFamily=Times New Roman;spacing=2;" parent="1" vertex="1">
          <mxGeometry x="430" y="460" width="80" height="26" as="geometry" />
        </mxCell>
        <mxCell id="JTrjq_9muoxQIfTAKnA5-27" value="&lt;b&gt;Room Availability Status&lt;/b&gt;" style="html=1;dropTarget=0;whiteSpace=wrap;fontFamily=Times New Roman;spacing=2;" parent="1" vertex="1">
          <mxGeometry x="690" y="510" width="130" height="70" as="geometry" />
        </mxCell>
        <mxCell id="JTrjq_9muoxQIfTAKnA5-28" value="" style="shape=module;jettyWidth=8;jettyHeight=4;fontFamily=Times New Roman;spacing=2;" parent="JTrjq_9muoxQIfTAKnA5-27" vertex="1">
          <mxGeometry x="1" width="20" height="20" relative="1" as="geometry">
            <mxPoint x="-27" y="7" as="offset" />
          </mxGeometry>
        </mxCell>
        <mxCell id="JTrjq_9muoxQIfTAKnA5-29" value="&lt;b&gt;Building and Room Data&lt;/b&gt;" style="html=1;dropTarget=0;whiteSpace=wrap;fontFamily=Times New Roman;spacing=2;" parent="1" vertex="1">
          <mxGeometry x="415" y="500" width="130" height="70" as="geometry" />
        </mxCell>
        <mxCell id="JTrjq_9muoxQIfTAKnA5-30" value="" style="shape=module;jettyWidth=8;jettyHeight=4;fontFamily=Times New Roman;spacing=2;" parent="JTrjq_9muoxQIfTAKnA5-29" vertex="1">
          <mxGeometry x="1" width="20" height="20" relative="1" as="geometry">
            <mxPoint x="-27" y="7" as="offset" />
          </mxGeometry>
        </mxCell>
        <mxCell id="JTrjq_9muoxQIfTAKnA5-31" value="&lt;b&gt;User Data&lt;/b&gt;" style="html=1;dropTarget=0;whiteSpace=wrap;fontFamily=Times New Roman;spacing=2;" parent="1" vertex="1">
          <mxGeometry x="140" y="500" width="130" height="70" as="geometry" />
        </mxCell>
        <mxCell id="JTrjq_9muoxQIfTAKnA5-32" value="" style="shape=module;jettyWidth=8;jettyHeight=4;fontFamily=Times New Roman;spacing=2;" parent="JTrjq_9muoxQIfTAKnA5-31" vertex="1">
          <mxGeometry x="1" width="20" height="20" relative="1" as="geometry">
            <mxPoint x="-27" y="7" as="offset" />
          </mxGeometry>
        </mxCell>
      </root>
    </mxGraphModel>
  </diagram>
</mxfile>
